<svg width="167" height="31" viewBox="0 0 167 31" fill="none" xmlns="http://www.w3.org/2000/svg">
<path d="M99.2067 30L99.1747 10.832L89.7987 27.024H88.9987L79.6227 10.896V30H78.0227V7.60001H79.3987L89.4147 24.912L99.4307 7.60001H100.775L100.807 30H99.2067Z" fill="#2C2929"/>
<path d="M110.376 13.168C112.446 13.168 114.035 13.7013 115.144 14.768C116.254 15.8133 116.808 17.36 116.808 19.408V30H115.272V27.024C114.739 28.0053 113.96 28.7733 112.936 29.328C111.912 29.8613 110.686 30.128 109.256 30.128C107.4 30.128 105.928 29.6907 104.84 28.816C103.774 27.9413 103.24 26.7893 103.24 25.36C103.24 23.9733 103.731 22.8533 104.712 22C105.715 21.1253 107.304 20.688 109.48 20.688H115.208V19.344C115.208 17.7867 114.782 16.6027 113.928 15.792C113.096 14.9813 111.87 14.576 110.248 14.576C109.139 14.576 108.072 14.768 107.048 15.152C106.046 15.536 105.192 16.048 104.488 16.688L103.688 15.536C104.52 14.7893 105.523 14.2133 106.696 13.808C107.87 13.3813 109.096 13.168 110.376 13.168ZM109.48 28.816C110.867 28.816 112.04 28.496 113 27.856C113.982 27.216 114.718 26.288 115.208 25.072V21.936H109.512C107.87 21.936 106.675 22.2347 105.928 22.832C105.203 23.4293 104.84 24.2507 104.84 25.296C104.84 26.384 105.246 27.248 106.056 27.888C106.867 28.5067 108.008 28.816 109.48 28.816Z" fill="#2C2929"/>
<path d="M121.577 16.944C122.089 15.728 122.889 14.8 123.977 14.16C125.065 13.4987 126.387 13.168 127.945 13.168V14.736L127.561 14.704C125.705 14.704 124.254 15.2907 123.209 16.464C122.163 17.616 121.641 19.2267 121.641 21.296V30H120.041V13.296H121.577V16.944Z" fill="#2C2929"/>
<path d="M128.993 13.296H130.593V30H128.993V13.296ZM129.793 9.23201C129.431 9.23201 129.121 9.11468 128.865 8.88001C128.609 8.62401 128.481 8.31468 128.481 7.95201C128.481 7.58935 128.609 7.28001 128.865 7.02401C129.121 6.76801 129.431 6.64001 129.793 6.64001C130.156 6.64001 130.465 6.76801 130.721 7.02401C130.977 7.25868 131.105 7.55735 131.105 7.92001C131.105 8.28268 130.977 8.59201 130.721 8.84801C130.465 9.10401 130.156 9.23201 129.793 9.23201Z" fill="#2C2929"/>
<path d="M142.137 13.168C144.228 13.168 145.881 13.776 147.097 14.992C148.313 16.208 148.921 17.9573 148.921 20.24V30H147.321V20.368C147.321 18.4907 146.841 17.0613 145.881 16.08C144.942 15.0987 143.62 14.608 141.913 14.608C139.95 14.608 138.404 15.1947 137.273 16.368C136.142 17.5413 135.577 19.12 135.577 21.104V30H133.977V13.296H135.513V16.912C136.089 15.7387 136.942 14.8213 138.073 14.16C139.225 13.4987 140.58 13.168 142.137 13.168Z" fill="#2C2929"/>
<path d="M166.291 22.032H151.923C151.966 23.3333 152.297 24.496 152.915 25.52C153.534 26.5227 154.366 27.3013 155.411 27.856C156.478 28.4107 157.673 28.688 158.995 28.688C160.083 28.688 161.086 28.496 162.003 28.112C162.942 27.7067 163.721 27.12 164.339 26.352L165.267 27.408C164.542 28.2827 163.625 28.9547 162.515 29.424C161.427 29.8933 160.243 30.128 158.963 30.128C157.299 30.128 155.817 29.7654 154.515 29.04C153.214 28.3147 152.19 27.312 151.443 26.032C150.718 24.752 150.355 23.2907 150.355 21.648C150.355 20.0267 150.697 18.576 151.379 17.296C152.083 15.9947 153.043 14.9813 154.259 14.256C155.475 13.5307 156.841 13.168 158.355 13.168C159.87 13.168 161.225 13.5307 162.419 14.256C163.635 14.96 164.585 15.952 165.267 17.232C165.971 18.512 166.323 19.9627 166.323 21.584L166.291 22.032ZM158.355 14.576C157.182 14.576 156.126 14.8427 155.187 15.376C154.249 15.888 153.491 16.624 152.915 17.584C152.361 18.5227 152.041 19.5893 151.955 20.784H164.755C164.691 19.5893 164.371 18.5227 163.795 17.584C163.219 16.6453 162.462 15.9093 161.523 15.376C160.585 14.8427 159.529 14.576 158.355 14.576Z" fill="#2C2929"/>
<path d="M7.25828 13.4275L18.3859 13.405C18.3859 13.405 21.192 13.1104 21.1869 10.3531C21.1814 7.51865 18.3737 7.23462 18.3737 7.23462L7.24601 7.2562L7.25828 13.4275ZM7.2714 20.0838C7.28114 25.025 7.28072 24.876 7.29045 29.8167L0.0584153 29.8311L0 0.0360196L18.3677 3.64803e-05C27.737 -0.0181653 28.7055 6.77957 28.7118 10.0483C28.7186 13.5121 27.6604 17.7722 22.9131 19.393L29.5648 29.7735L21.3795 29.7892L16.8202 22.6939C16.258 21.8185 15.6959 20.9435 15.1333 20.0686L7.2714 20.0838Z" fill="#252525"/>
<path d="M35.4782 29.7516L35.449 15.1458L29.2236 15.158L29.2202 13.403L48.0984 13.3662L44.0974 15.1288L37.204 15.1424L37.2328 29.7483L35.4782 29.7516Z" fill="#252525"/>
<path d="M40.4606 21.8045C40.4669 25.1223 43.5401 27.9809 47.8044 27.9724C52.2723 27.9639 55.13 24.9585 55.1236 21.5472C55.1173 18.2395 52.2359 15.1126 47.7794 15.1215C43.0207 15.1308 40.4534 18.259 40.4606 21.8045ZM38.7056 21.7749C38.6963 17.0594 41.8113 13.3682 47.7891 13.3563C53.593 13.3449 56.8651 17.034 56.8739 21.5548C56.8833 26.1768 53.4736 29.7261 47.8078 29.7371C42.2748 29.7481 38.7141 26.1802 38.7056 21.7749Z" fill="#252525"/>
<path d="M58.4947 21.4753L64.3163 21.4638C66.7685 21.4592 68.7394 20.6477 68.7347 18.2971C68.7301 15.8281 66.7147 15.395 64.2507 15.3997L58.4829 15.4111L58.4947 21.4753ZM56.8155 29.7097L56.7842 13.687L63.0202 13.6747C66.8083 13.6675 70.4448 14.3474 70.4525 18.2938C70.4597 22.0052 67.2341 23.1757 63.2627 23.1837L58.4981 23.193L58.5108 29.7063L56.8155 29.7097Z" fill="#252525"/>
<path d="M70.4691 27.9336L68.7141 27.9369L68.7174 29.6915L70.4724 29.6881L70.4691 27.9336Z" fill="#252525"/>
</svg>
