<svg width="32" height="32" viewBox="0 0 32 32" fill="none" xmlns="http://www.w3.org/2000/svg">
<path d="M7.96093 5.38288C10.1405 3.71105 12.855 2.83575 15.5883 2.69213C15.4882 5.16293 15.5254 7.6823 14.8415 10.079C14.5917 11.0222 14.1391 11.9002 13.515 12.6522C12.8908 13.4043 12.1101 14.0124 11.2268 14.4346C8.5378 15.5901 5.53943 15.5044 2.66893 15.6202C2.66893 11.6374 4.76244 7.74486 7.96093 5.38288ZM16.4024 2.66667C18.8216 2.86818 21.2454 3.50029 23.2737 4.87346C25.0803 6.04387 26.5747 7.63319 27.6285 9.50502C28.6823 11.3768 29.2641 13.4753 29.324 15.6202C26.6676 15.5276 23.9343 15.5647 21.3896 14.6963C20.4671 14.3784 19.6273 13.86 18.9312 13.1787C18.2351 12.4974 17.7002 11.6703 17.3654 10.7574C16.4257 8.17551 16.4489 5.37593 16.4024 2.66667ZM21.8711 17.1671C24.2996 16.5025 26.835 16.4817 29.3333 16.4238C29.2356 19.8373 27.8123 23.0802 25.3626 25.4709C22.9649 27.8278 19.7673 29.205 16.4 29.331C16.4652 26.573 16.4187 23.7156 17.4282 21.0989C18.147 19.1655 19.9009 17.7251 21.8711 17.1671ZM2.6667 16.4284C5.68589 16.5349 8.90996 16.3959 11.6641 17.8363C13.5482 18.7949 14.6578 20.7887 15.0533 22.7963C15.5045 24.9453 15.5184 27.1497 15.5743 29.3333C13.7873 29.265 12.0315 28.8456 10.408 28.0993C8.78438 27.3529 7.32507 26.2944 6.11396 24.9846C4.00885 22.6596 2.65509 19.5799 2.6667 16.4284Z" fill="#9DAABE"/>
</svg>
