<svg width="32" height="32" viewBox="0 0 32 32" fill="none" xmlns="http://www.w3.org/2000/svg">
<path fill-rule="evenodd" clip-rule="evenodd" d="M19.2825 3.32435C20.3342 2.88855 21.4616 2.66425 22.6 2.66425C23.7385 2.66425 24.8658 2.88855 25.9175 3.32435C26.9691 3.76006 27.9245 4.39865 28.7293 5.20365C29.5343 6.00839 30.1733 6.96426 30.609 8.01582C31.0448 9.06757 31.2691 10.1949 31.2691 11.3333C31.2691 12.4718 31.0448 13.5991 30.609 14.6509C30.1733 15.7025 29.5346 16.658 28.7295 17.4628C28.7294 17.4629 28.7296 17.4627 28.7295 17.4628L16.9428 29.2495C16.4221 29.7702 15.5779 29.7702 15.0572 29.2495L3.27054 17.4628C1.6449 15.8372 0.731628 13.6323 0.731628 11.3333C0.731628 9.03435 1.6449 6.82951 3.27054 5.20387C4.89618 3.57823 7.10102 2.66496 9.40002 2.66496C11.699 2.66496 13.9039 3.57823 15.5295 5.20387L16 5.6744L16.4703 5.20409C16.4704 5.20402 16.4702 5.20417 16.4703 5.20409C17.2751 4.39899 18.2308 3.7601 19.2825 3.32435ZM22.6 5.33091C21.8118 5.33091 21.0314 5.4862 20.3033 5.7879C19.5751 6.08961 18.9136 6.53182 18.3564 7.08927L16.9428 8.50282C16.4221 9.02352 15.5779 9.02352 15.0572 8.50282L13.6439 7.08949C12.5183 5.96395 10.9918 5.33163 9.40002 5.33163C7.80826 5.33163 6.2817 5.96395 5.15616 7.08949C4.03062 8.21503 3.3983 9.74159 3.3983 11.3333C3.3983 12.9251 4.03062 14.4517 5.15616 15.5772L16 26.4211L26.8439 15.5772C27.4013 15.02 27.8438 14.3582 28.1455 13.6301C28.4472 12.902 28.6025 12.1215 28.6025 11.3333C28.6025 10.5452 28.4472 9.76473 28.1455 9.0366C27.8438 8.30846 27.4015 7.6469 26.8441 7.08971C26.2869 6.53226 25.6249 6.08961 24.8968 5.7879C24.1686 5.4862 23.3882 5.33091 22.6 5.33091Z" fill="#292929"/>
</svg>
