<svg width="185" height="21" viewBox="0 0 185 21" fill="none" xmlns="http://www.w3.org/2000/svg">
<g clip-path="url(#clip0_167_207)">
<path d="M84.4608 0.0314941C79.9588 0.0314941 75.9355 2.35912 75.9355 6.65959C75.9355 11.5914 83.0709 11.9321 83.0709 14.4096C83.0709 15.4529 81.8723 16.3868 79.8253 16.3868C76.92 16.3868 74.7486 15.0819 74.7486 15.0819L73.8196 19.4215C73.8196 19.4215 76.321 20.5238 79.6419 20.5238C84.5642 20.5238 88.4374 18.0818 88.4374 13.7079C88.4374 8.49645 81.2721 8.16593 81.2721 5.8663C81.2721 5.04909 82.256 4.15367 84.2972 4.15367C86.6004 4.15367 88.4794 5.10266 88.4794 5.10266L89.3887 0.911287C89.3887 0.911287 87.3441 0.0314941 84.4608 0.0314941ZM43.271 0.347825L43.162 0.980484C43.162 0.980484 45.056 1.32625 46.7619 2.01597C48.9584 2.80688 49.1148 3.2673 49.4847 4.69736L53.5158 20.1975H58.9193L67.244 0.347825H61.8529L56.5038 13.8438L54.321 2.40396C54.1208 1.0947 53.1069 0.347825 51.8657 0.347825H43.271ZM69.412 0.347825L65.1827 20.1975H70.3237L74.5381 0.347825H69.412ZM98.0851 0.347825C96.8453 0.347825 96.1885 1.00985 95.7065 2.16672L88.1747 20.1975H93.5658L94.609 17.1924H101.177L101.811 20.1975H106.568L102.418 0.347825H98.0851ZM98.7861 5.71061L100.384 13.1592H96.103L98.7861 5.71061Z" fill="#1434CB"/>
</g>
<path fill-rule="evenodd" clip-rule="evenodd" d="M127.079 2.22962C127.618 2.2264 129.219 2.08221 129.897 4.37086C130.354 5.91253 131.081 8.43785 132.08 11.9468H132.486C133.557 8.24742 134.293 5.7221 134.693 4.37086C135.378 2.05836 137.091 2.22966 137.776 2.22966L143.063 2.22967V18.6741H137.675V8.98311H137.313L134.31 18.6741H130.256L127.253 8.97592H126.891V18.6741H121.503V2.22967L127.079 2.22962ZM150.8 2.22967V11.9278H151.23L154.883 3.95311C155.592 2.36611 157.104 2.22967 157.104 2.22967H162.318V18.6741H156.817V8.97592H156.388L152.806 16.9506C152.096 18.5305 150.513 18.6741 150.513 18.6741H145.299V2.22967H150.8ZM181.33 10.0442C180.563 12.2184 178.153 13.7756 175.486 13.7756H169.717V18.6741H164.487V10.0442H181.33Z" fill="#0F754E"/>
<path fill-rule="evenodd" clip-rule="evenodd" d="M175.738 2.22949H164.212C164.486 5.89059 167.639 9.02472 170.903 9.02472H181.694C182.316 5.98192 180.173 2.22949 175.738 2.22949Z" fill="url(#paint0_linear_167_207)"/>
<g clip-path="url(#clip1_167_207)">
<path d="M21.2935 2.21143H12.2176V18.4663H21.2935V2.21143Z" fill="#FF5A00"/>
<path d="M12.8218 10.3391C12.8218 7.03662 14.3792 4.10553 16.7689 2.2117C15.0102 0.833152 12.7916 0 10.3715 0C4.63866 0 0 4.62416 0 10.3391C0 16.054 4.63866 20.6782 10.3715 20.6782C12.7916 20.6782 15.0102 19.8452 16.7689 18.4666C14.3759 16.5994 12.8218 13.6416 12.8218 10.3391Z" fill="#EB001B"/>
<path d="M33.538 10.3391C33.538 16.054 28.8993 20.6782 23.1664 20.6782C20.7464 20.6782 18.5278 19.8452 16.769 18.4666C19.189 16.5694 20.7162 13.6416 20.7162 10.3391C20.7162 7.03662 19.1587 4.10553 16.769 2.2117C18.5244 0.833152 20.743 0 23.1631 0C28.8993 0 33.538 4.65427 33.538 10.3391Z" fill="#F79E1B"/>
</g>
<defs>
<linearGradient id="paint0_linear_167_207" x1="181.799" y1="6.50398" x2="164.212" y2="6.50398" gradientUnits="userSpaceOnUse">
<stop stop-color="#1F5CD7"/>
<stop offset="1" stop-color="#02AEFF"/>
</linearGradient>
<clipPath id="clip0_167_207">
<rect width="64.4074" height="20.5556" fill="white" transform="translate(42.4814)"/>
</clipPath>
<clipPath id="clip1_167_207">
<rect width="34.2593" height="20.5556" fill="white"/>
</clipPath>
</defs>
</svg>
