<svg width="31" height="31" viewBox="0 0 31 31" fill="none" xmlns="http://www.w3.org/2000/svg">
<path fill-rule="evenodd" clip-rule="evenodd" d="M14.2083 5.16665C9.21477 5.16665 5.16668 9.21474 5.16668 14.2083C5.16668 19.2019 9.21477 23.25 14.2083 23.25C19.2019 23.25 23.25 19.2019 23.25 14.2083C23.25 9.21474 19.2019 5.16665 14.2083 5.16665ZM2.58334 14.2083C2.58334 7.788 7.78803 2.58331 14.2083 2.58331C20.6287 2.58331 25.8333 7.788 25.8333 14.2083C25.8333 20.6286 20.6287 25.8333 14.2083 25.8333C7.78803 25.8333 2.58334 20.6286 2.58334 14.2083Z" fill="#9DAABE"/>
<path fill-rule="evenodd" clip-rule="evenodd" d="M20.5929 20.5929C21.0973 20.0885 21.9152 20.0885 22.4196 20.5929L28.0384 26.2117C28.5428 26.7161 28.5428 27.5339 28.0384 28.0384C27.5339 28.5428 26.7161 28.5428 26.2117 28.0384L20.5929 22.4196C20.0885 21.9152 20.0885 21.0973 20.5929 20.5929Z" fill="#9DAABE"/>
</svg>
